<?xml version="1.0" standalone="no"?>
<!DOCTYPE svg PUBLIC "-//W3C//DTD SVG 20010904//EN"
 "http://www.w3.org/TR/2001/REC-SVG-20010904/DTD/svg10.dtd">
<svg version="1.0" xmlns="http://www.w3.org/2000/svg"
 width="52.000000pt" height="52.000000pt" viewBox="0 0 52.000000 52.000000"
 preserveAspectRatio="xMidYMid meet">

<g transform="translate(0.000000,52.000000) scale(0.100000,-0.100000)"
fill="#000000" stroke="none">
<path d="M176 504 c-94 -29 -176 -143 -176 -244 0 -133 127 -260 260 -260 133
0 260 127 260 260 0 104 -82 215 -181 244 -64 19 -99 19 -163 0z m-29 -220
l17 -56 19 56 c11 33 25 56 33 56 19 0 18 -15 -8 -87 -18 -52 -26 -63 -44 -63
-18 0 -26 11 -43 62 -25 73 -26 88 -7 88 9 0 22 -22 33 -56z m162 9 c8 -24 18
-43 22 -43 3 0 14 20 23 45 13 32 23 45 37 45 17 0 19 -8 19 -75 0 -60 -3 -75
-15 -75 -11 0 -15 12 -16 43 l0 42 -19 -42 c-11 -24 -24 -43 -29 -43 -6 0 -19
19 -30 43 l-19 42 -1 -42 c-1 -31 -5 -43 -16 -43 -12 0 -15 15 -15 76 0 72 1
75 22 72 15 -2 26 -16 37 -45z"/>
</g>
</svg>
